# xmcd
#
# Track frame offsets:
# 150
# 16440
# 32104
# 47405
# 70899
# 83880
# 101965
# 115451
# 131752
# 159220
# 171420
#
# Disc length: 2385 seconds
#
#
# Revision: 0
# Processed by: cddbd v1.5.2PL0 Copyright (c) Steve Scherf et al.
# Submitted via: FreeRIP 2.945 
#
DISCID=93094f0b
DTITLE=Nicole Willis - Keep Reachin' Up
DYEAR=2007
DGENRE=Soul
TTITLE0=Feeling Free
TTITLE1=If This Ain't Love (Don't Know What It Is)
TTITLE2=Keep Reachin' Up
TTITLE3=Blues Downtown
TTITLE4=My Four Leaf Clover
TTITLE5=A Perfect Kind Of Love
TTITLE6=Invisible Man
TTITLE7=Holdin' On
TTITLE8=No One's Gonna Love You
TTITLE9=Soul Investigators Theme
TTITLE10=Bonus Track
EXTD=
EXTT0=
EXTT1=
EXTT2=
EXTT3=
EXTT4=
EXTT5=
EXTT6=
EXTT7=
EXTT8=
EXTT9=
EXTT10=
PLAYORDER=
